<svg width="508" height="301" viewBox="0 0 508 301" fill="none" xmlns="http://www.w3.org/2000/svg">
<path d="M0 22.5117C0 10.0789 10.0788 0 22.5117 0V0C34.9446 0 45.0234 10.0788 45.0234 22.5117V211.972H40C17.9086 211.972 0 194.063 0 171.972V22.5117Z" fill="black"/>
<path d="M94.4448 171.972C94.4448 194.063 76.5362 211.972 54.4448 211.972L49.7106 211.972L49.7106 89.8761L54.4448 89.8761C76.5362 89.8761 94.4448 107.785 94.4448 129.876L94.4448 171.972Z" fill="black"/>
<path d="M207.278 129.028C207.278 106.937 225.186 89.0281 247.278 89.0281H251.452V278.913C251.452 291.111 241.563 301 229.365 301V301C217.166 301 207.278 291.111 207.278 278.913V129.028Z" fill="black"/>
<path d="M300.722 171.972C300.722 194.063 282.814 211.972 260.722 211.972L256.549 211.972L256.548 89.028L260.722 89.028C282.814 89.028 300.722 106.937 300.722 129.028L300.722 171.972Z" fill="black"/>
<path d="M310.917 129.028C310.917 106.937 328.825 89.0281 350.916 89.0281H355.09V278.913C355.09 291.111 345.202 301 333.003 301V301C320.805 301 310.917 291.111 310.917 278.913V129.028Z" fill="black"/>
<path d="M404.361 171.972C404.361 194.063 386.453 211.972 364.361 211.972L360.187 211.972L360.187 89.028L364.361 89.028C386.453 89.028 404.361 106.937 404.361 129.028L404.361 171.972Z" fill="black"/>
<path d="M197.083 211.972L152.82 211.972L152.82 131.717L197.083 131.717L197.083 211.972Z" fill="black"/>
<path d="M103.639 171.844C103.639 149.753 121.547 131.717 143.639 131.717L147.902 131.717L147.902 211.972L143.639 211.972C121.547 211.972 103.639 193.936 103.639 171.844V171.844Z" fill="black"/>
<path d="M158.664 89.0281C179.882 89.0281 197.083 106.229 197.083 127.448V127.448L122.849 127.448C112.239 127.448 103.639 118.847 103.639 108.238V108.238C103.639 97.6287 112.239 89.0281 122.849 89.0281L158.664 89.0281Z" fill="black"/>
<path d="M488.923 89.0281C499.459 89.0281 508 97.5693 508 108.106V108.106C508 118.642 499.459 127.183 488.923 127.183L414.555 127.183V127.183C414.555 106.111 431.638 89.0281 452.71 89.0281L488.923 89.0281Z" fill="black"/>
<path d="M433.633 211.972C423.096 211.972 414.555 203.43 414.555 192.894V192.894C414.555 182.358 423.096 173.817 433.633 173.817L508 173.817V173.817C508 194.889 490.917 211.972 469.845 211.972L433.633 211.972Z" fill="black"/>
<path d="M452.71 169.577C431.638 169.577 414.555 152.495 414.555 131.422V131.422L469.845 131.422C490.917 131.422 508 148.505 508 169.577V169.577L452.71 169.577Z" fill="black"/>
<path d="M72.1625 52C72.1625 50.215 72.1625 48.4975 72.1625 46.8475C72.1625 45.1975 72.1625 43.3825 72.1625 41.4025V30.625C72.1625 28.63 72.1625 26.7925 72.1625 25.1125C72.1625 23.4325 72.1625 21.7 72.1625 19.915C73.3775 19.915 74.945 19.915 76.865 19.915C78.8 19.915 81.0125 19.915 83.5025 19.915C85.9475 19.915 87.965 20.2375 89.555 20.8825C91.16 21.5275 92.36 22.5325 93.155 23.8975C93.95 25.2475 94.3475 26.98 94.3475 29.095C94.3475 31.06 93.98 32.8075 93.245 34.3375C92.525 35.8525 91.31 37.045 89.6 37.915C87.905 38.785 85.5875 39.22 82.6475 39.22C81.8975 39.22 81.095 39.22 80.24 39.22C79.385 39.22 78.5525 39.22 77.7425 39.22C76.9325 39.22 76.2275 39.22 75.6275 39.22V35.845H81.8825C83.8025 35.845 85.37 35.62 86.585 35.17C87.815 34.72 88.7225 34 89.3075 33.01C89.8925 32.02 90.185 30.7225 90.185 29.1175C90.185 27.7975 89.9675 26.7475 89.5325 25.9675C89.1125 25.1875 88.55 24.61 87.845 24.235C87.155 23.845 86.405 23.59 85.595 23.47C84.785 23.35 83.9975 23.29 83.2325 23.29H74.1875L76.1675 20.5C76.1675 22.3 76.1675 24.04 76.1675 25.72C76.1675 27.385 76.1675 29.215 76.1675 31.21V41.4025C76.1675 43.3825 76.1675 45.1975 76.1675 46.8475C76.1675 48.4975 76.1675 50.215 76.1675 52H72.1625ZM109.032 52.495C107.187 52.495 105.56 52.18 104.15 51.55C102.755 50.905 101.585 50.035 100.64 48.94C99.6948 47.845 98.9748 46.5925 98.4798 45.1825C97.9998 43.7575 97.7598 42.265 97.7598 40.705C97.7598 38.47 98.2098 36.49 99.1098 34.765C100.025 33.025 101.315 31.6525 102.98 30.6475C104.66 29.6425 106.655 29.14 108.965 29.14C110.75 29.14 112.332 29.4325 113.712 30.0175C115.092 30.6025 116.262 31.42 117.222 32.47C118.182 33.52 118.91 34.75 119.405 36.16C119.9 37.555 120.147 39.07 120.147 40.705C120.147 42.91 119.697 44.905 118.797 46.69C117.897 48.475 116.615 49.8925 114.95 50.9425C113.3 51.9775 111.327 52.495 109.032 52.495ZM109.032 49.255C110.667 49.255 112.025 48.85 113.105 48.04C114.185 47.23 114.995 46.1725 115.535 44.8675C116.075 43.5625 116.345 42.175 116.345 40.705C116.345 39.025 116.045 37.5625 115.445 36.3175C114.845 35.0725 113.997 34.105 112.902 33.415C111.807 32.725 110.51 32.38 109.01 32.38C107.39 32.38 106.025 32.7475 104.915 33.4825C103.805 34.2175 102.965 35.215 102.395 36.475C101.84 37.735 101.562 39.145 101.562 40.705C101.562 42.175 101.832 43.5625 102.372 44.8675C102.927 46.1725 103.76 47.23 104.87 48.04C105.98 48.85 107.367 49.255 109.032 49.255ZM130.028 52C129.578 50.59 129.121 49.1875 128.656 47.7925C128.191 46.3825 127.718 44.95 127.238 43.495L125.956 39.535C125.416 37.885 124.876 36.25 124.336 34.63C123.811 32.995 123.278 31.345 122.738 29.68L126.653 29.5225C127.208 31.3525 127.786 33.28 128.386 35.305C129.001 37.315 129.586 39.25 130.141 41.11L132.211 48.0175H132.571L134.596 40.9525C135.136 39.0775 135.676 37.21 136.216 35.35C136.756 33.475 137.303 31.585 137.858 29.68H141.458C141.998 31.495 142.546 33.355 143.101 35.26C143.656 37.15 144.203 39.0175 144.743 40.8625L146.836 48.0175H147.196L149.311 40.7725C149.836 38.9575 150.383 37.0675 150.953 35.1025C151.538 33.1225 152.071 31.315 152.551 29.68H156.511C155.986 31.315 155.453 32.9575 154.913 34.6075C154.388 36.2575 153.863 37.9 153.338 39.535L152.078 43.45C151.598 44.905 151.126 46.3525 150.661 47.7925C150.196 49.2175 149.738 50.62 149.288 52H144.901C144.376 50.275 143.836 48.49 143.281 46.645C142.726 44.785 142.186 43.0225 141.661 41.3575L139.703 34.855H139.321L137.386 41.425C136.891 43.09 136.373 44.8375 135.833 46.6675C135.293 48.4975 134.761 50.275 134.236 52H130.028ZM170.807 52.495C168.137 52.495 165.94 51.985 164.215 50.965C162.49 49.945 161.207 48.55 160.367 46.78C159.527 45.01 159.107 42.985 159.107 40.705C159.107 38.455 159.52 36.46 160.345 34.72C161.17 32.98 162.355 31.6225 163.9 30.6475C165.445 29.6575 167.29 29.1625 169.435 29.1625C171.325 29.1625 172.945 29.53 174.295 30.265C175.66 31 176.71 32.08 177.445 33.505C178.18 34.915 178.547 36.6625 178.547 38.7475C178.547 39.3025 178.532 39.805 178.502 40.255C178.487 40.69 178.442 41.1325 178.367 41.5825L175.105 39.94C175.135 39.7 175.15 39.475 175.15 39.265C175.165 39.04 175.172 38.8225 175.172 38.6125C175.172 36.4975 174.647 34.8925 173.597 33.7975C172.547 32.6875 171.175 32.1325 169.48 32.1325C168.115 32.1325 166.937 32.485 165.947 33.19C164.972 33.88 164.215 34.84 163.675 36.07C163.135 37.3 162.865 38.7025 162.865 40.2775V40.795C162.865 42.535 163.165 44.035 163.765 45.295C164.365 46.555 165.272 47.53 166.487 48.22C167.717 48.895 169.277 49.2325 171.167 49.2325C171.872 49.2325 172.615 49.18 173.395 49.075C174.19 48.955 174.97 48.775 175.735 48.535C176.515 48.295 177.257 47.98 177.962 47.59L178.12 50.9425C177.55 51.2575 176.89 51.535 176.14 51.775C175.39 52 174.565 52.1725 173.665 52.2925C172.765 52.4275 171.812 52.495 170.807 52.495ZM160.66 41.5825V38.9275L176.095 38.7925L178.367 39.6475V41.5825H160.66ZM184.458 52C184.458 50.335 184.458 48.7375 184.458 47.2075C184.458 45.6775 184.458 43.99 184.458 42.145V39.895C184.458 38.245 184.458 36.5575 184.458 34.8325C184.458 33.1075 184.458 31.39 184.458 29.68L187.698 29.455L187.81 34H188.193C188.808 32.635 189.513 31.6075 190.308 30.9175C191.118 30.2125 191.935 29.74 192.76 29.5C193.585 29.26 194.343 29.14 195.033 29.14C195.453 29.14 195.873 29.17 196.293 29.23C196.713 29.29 197.11 29.3875 197.485 29.5225L197.148 33.2575C196.653 33.1675 196.203 33.0925 195.798 33.0325C195.408 32.9725 194.95 32.9425 194.425 32.9425C193.99 32.9425 193.495 33.01 192.94 33.145C192.4 33.265 191.838 33.5275 191.253 33.9325C190.683 34.3225 190.128 34.915 189.588 35.71C189.048 36.49 188.575 37.5325 188.17 38.8375V42.3025C188.17 44.0575 188.17 45.7 188.17 47.23C188.17 48.745 188.17 50.335 188.17 52H184.458ZM211.764 52.495C209.094 52.495 206.897 51.985 205.172 50.965C203.447 49.945 202.164 48.55 201.324 46.78C200.484 45.01 200.064 42.985 200.064 40.705C200.064 38.455 200.477 36.46 201.302 34.72C202.127 32.98 203.312 31.6225 204.857 30.6475C206.402 29.6575 208.247 29.1625 210.392 29.1625C212.282 29.1625 213.902 29.53 215.252 30.265C216.617 31 217.667 32.08 218.402 33.505C219.137 34.915 219.504 36.6625 219.504 38.7475C219.504 39.3025 219.489 39.805 219.459 40.255C219.444 40.69 219.399 41.1325 219.324 41.5825L216.062 39.94C216.092 39.7 216.107 39.475 216.107 39.265C216.122 39.04 216.129 38.8225 216.129 38.6125C216.129 36.4975 215.604 34.8925 214.554 33.7975C213.504 32.6875 212.132 32.1325 210.437 32.1325C209.072 32.1325 207.894 32.485 206.904 33.19C205.929 33.88 205.172 34.84 204.632 36.07C204.092 37.3 203.822 38.7025 203.822 40.2775V40.795C203.822 42.535 204.122 44.035 204.722 45.295C205.322 46.555 206.229 47.53 207.444 48.22C208.674 48.895 210.234 49.2325 212.124 49.2325C212.829 49.2325 213.572 49.18 214.352 49.075C215.147 48.955 215.927 48.775 216.692 48.535C217.472 48.295 218.214 47.98 218.919 47.59L219.077 50.9425C218.507 51.2575 217.847 51.535 217.097 51.775C216.347 52 215.522 52.1725 214.622 52.2925C213.722 52.4275 212.769 52.495 211.764 52.495ZM201.617 41.5825V38.9275L217.052 38.7925L219.324 39.6475V41.5825H201.617ZM233.357 52.495C231.227 52.495 229.457 51.955 228.047 50.875C226.637 49.78 225.58 48.3475 224.875 46.5775C224.17 44.7925 223.817 42.8575 223.817 40.7725C223.817 38.5525 224.192 36.565 224.942 34.81C225.692 33.055 226.78 31.675 228.205 30.67C229.645 29.65 231.385 29.14 233.425 29.14C234.46 29.14 235.405 29.2825 236.26 29.5675C237.13 29.8375 237.895 30.205 238.555 30.67C239.215 31.12 239.762 31.6225 240.197 32.1775H240.58V29.7925C240.58 27.9025 240.58 26.0725 240.58 24.3025C240.58 22.5175 240.58 20.77 240.58 19.06L244.292 18.61C244.292 20.425 244.292 22.2475 244.292 24.0775C244.292 25.8925 244.292 27.7975 244.292 29.7925V42.145C244.292 43.99 244.292 45.6775 244.292 47.2075C244.292 48.7375 244.292 50.335 244.292 52H241.052L240.872 48.94H240.512C239.927 49.705 239.275 50.35 238.555 50.875C237.835 51.4 237.04 51.7975 236.17 52.0675C235.315 52.3525 234.377 52.495 233.357 52.495ZM234.482 49.165C235.412 49.165 236.252 49.0225 237.002 48.7375C237.752 48.4375 238.42 48.0175 239.005 47.4775C239.605 46.9375 240.13 46.285 240.58 45.52V35.5975C240.115 34.9225 239.56 34.36 238.915 33.91C238.285 33.445 237.595 33.1 236.845 32.875C236.095 32.635 235.33 32.515 234.55 32.515C232.975 32.515 231.677 32.89 230.657 33.64C229.637 34.39 228.872 35.395 228.362 36.655C227.867 37.9 227.62 39.28 227.62 40.795C227.62 42.25 227.86 43.615 228.34 44.89C228.82 46.15 229.562 47.1775 230.567 47.9725C231.572 48.7675 232.877 49.165 234.482 49.165ZM270.935 52.495C269.9 52.495 268.947 52.3525 268.077 52.0675C267.207 51.7975 266.412 51.4075 265.692 50.8975C264.972 50.3725 264.32 49.7425 263.735 49.0075H263.375L263.06 52H260C260 50.335 260 48.7375 260 47.2075C260 45.6775 260 43.99 260 42.145V29.7925C260 27.9025 260 26.065 260 24.28C260 22.495 260 20.755 260 19.06L263.712 18.61C263.712 20.425 263.712 22.2475 263.712 24.0775C263.712 25.8925 263.712 27.7975 263.712 29.7925V32.1775H264.095C264.515 31.6225 265.055 31.12 265.715 30.67C266.39 30.205 267.162 29.8375 268.032 29.5675C268.902 29.2825 269.847 29.14 270.867 29.14C272.907 29.14 274.64 29.65 276.065 30.67C277.505 31.675 278.6 33.055 279.35 34.81C280.1 36.565 280.475 38.5525 280.475 40.7725C280.475 42.8575 280.122 44.7925 279.417 46.5775C278.727 48.3475 277.67 49.78 276.245 50.875C274.835 51.955 273.065 52.495 270.935 52.495ZM269.81 49.165C271.415 49.165 272.72 48.7675 273.725 47.9725C274.745 47.1775 275.487 46.15 275.952 44.89C276.432 43.615 276.672 42.25 276.672 40.795C276.672 39.28 276.417 37.9 275.907 36.655C275.412 35.395 274.655 34.39 273.635 33.64C272.615 32.89 271.317 32.515 269.742 32.515C268.962 32.515 268.197 32.635 267.447 32.875C266.697 33.1 266 33.445 265.355 33.91C264.725 34.36 264.177 34.9225 263.712 35.5975V45.52C264.162 46.285 264.68 46.9375 265.265 47.4775C265.865 48.0175 266.54 48.4375 267.29 48.7375C268.04 49.0225 268.88 49.165 269.81 49.165ZM288.219 60.775C288.819 59.305 289.419 57.82 290.019 56.32C290.619 54.82 291.219 53.335 291.819 51.865V52.81C291.249 51.28 290.679 49.7275 290.109 48.1525C289.539 46.5775 288.977 45.0475 288.422 43.5625L286.937 39.5125C286.352 37.9075 285.744 36.265 285.114 34.585C284.499 32.905 283.899 31.27 283.314 29.68L287.297 29.5225C287.942 31.4575 288.572 33.3475 289.187 35.1925C289.802 37.0375 290.432 38.92 291.077 40.84L293.439 48.0175H293.844L296.432 40.8175C297.107 38.9425 297.774 37.0825 298.434 35.2375C299.094 33.3925 299.762 31.54 300.437 29.68H304.374C303.894 30.88 303.429 32.0425 302.979 33.1675C302.544 34.2775 302.057 35.5075 301.517 36.8575C300.992 38.2075 300.362 39.8125 299.627 41.6725L297.152 47.95C296.027 50.8 295.067 53.2225 294.272 55.2175C293.492 57.2125 292.779 59.02 292.134 60.64L288.219 60.775Z" fill="black"/>
</svg>
